<?xml version="1.0" standalone="no"?>
<!DOCTYPE svg PUBLIC "-//W3C//DTD SVG 20010904//EN"
 "http://www.w3.org/TR/2001/REC-SVG-20010904/DTD/svg10.dtd">
<svg version="1.0" xmlns="http://www.w3.org/2000/svg"
 width="1024.000000pt" height="1024.000000pt" viewBox="0 0 1024.000000 1024.000000"
 preserveAspectRatio="xMidYMid meet">
<metadata>
Created by potrace 1.14, written by Peter Selinger 2001-2017
</metadata>
<g transform="translate(0.000000,1024.000000) scale(0.100000,-0.100000)"
fill="#000000" stroke="none">
<path d="M0 5120 l0 -5120 5120 0 5120 0 0 5120 0 5120 -5120 0 -5120 0 0
-5120z m5280 -2080 l0 -480 480 0 480 0 0 -240 0 -240 -480 0 -480 0 0 -320 0
-320 -80 0 -80 0 0 -80 0 -80 -160 0 -160 0 0 400 0 400 -480 0 -480 0 0 240
0 240 480 0 480 0 0 480 0 480 240 0 240 0 0 -480z m2880 0 l0 -480 480 0 480
0 0 -240 0 -240 -480 0 -480 0 0 -320 0 -320 -80 0 -80 0 0 -80 0 -80 -160 0
-160 0 0 400 0 400 -480 0 -480 0 0 240 0 240 480 0 480 0 0 480 0 480 240 0
240 0 0 -480z"/>
</g>
</svg>
