<svg role="img" viewBox="0 0 24 24" xmlns="http://www.w3.org/2000/svg"><title>Hangar</title><path style="fill: white;" d="M19.4 10.304c-1.713-.674-4.24 1.911-5.477 5.884a16.609 16.609 0 0 0-.619 6.725l-.795-.356c-1.519-5.002-.672-10.473 1.961-14.426l4.93 2.173Z"/><path style="fill: white;" d="m20.514 18.848-5.867-2.567c1.078-3.466 3.075-5.545 4.365-5.545.132.005.263.03.388.074l.106.057c.46.224 1.856 1.499 1.008 7.981M18.411 3.466a13.269 13.269 0 0 0-4.559 4.384c-2.579 3.972-3.464 9.349-2.121 14.37.16.606.355 1.2.584 1.78l-7.863-3.447C1.483 12.834 4.204 3.635 10.547 0l7.864 3.466Z"/></svg>